<svg width="32" height="32" viewBox="0 0 32 32" fill="none" xmlns="http://www.w3.org/2000/svg">
<g clip-path="url(#clip0_2_47)">
<path d="M6.62401 20.78C6.42914 20.9356 6.18317 21.0128 5.93433 20.9964C5.6855 20.9801 5.45176 20.8713 5.27897 20.6915C5.10618 20.5117 5.0068 20.2738 5.00033 20.0245C4.99386 19.7752 5.08077 19.5325 5.24401 19.344L5.37601 19.22L15.376 11.22C15.5269 11.0991 15.7096 11.0246 15.902 11.0054C16.0944 10.9863 16.2882 11.0233 16.46 11.112L16.624 11.22L26.624 19.22C26.818 19.3763 26.9467 19.5994 26.9849 19.8456C27.0231 20.0919 26.9679 20.3435 26.8303 20.5512C26.6927 20.7589 26.4824 20.9077 26.2408 20.9685C25.9992 21.0293 25.7436 20.9978 25.524 20.88L25.376 20.78L16 13.282L6.62401 20.78Z" fill="#2F3941"/>
</g>
<defs>
<clipPath id="clip0_2_47">
<rect width="32" height="32" fill="white" transform="translate(32 32) rotate(-180)"/>
</clipPath>
</defs>
</svg>
